<svg xmlns="http://www.w3.org/2000/svg" version="1.1" xmlns:xlink="http://www.w3.org/1999/xlink" xmlns:svgjs="http://svgjs.dev/svgjs" width="1500" height="1500" viewBox="0 0 1500 1500"><rect width="1500" height="1500" fill="#ffffff"></rect><g transform="matrix(0.6666666666666666,0,0,0.6666666666666666,249.39393939393938,512.3090710043925)"><svg viewBox="0 0 396 188" data-background-color="#ffffff" preserveAspectRatio="xMidYMid meet" height="712" width="1500" xmlns="http://www.w3.org/2000/svg" xmlns:xlink="http://www.w3.org/1999/xlink"><g id="tight-bounds" transform="matrix(1,0,0,1,0.2400000000000091,0.14163198983332848)"><svg viewBox="0 0 395.52 171.18686608102362" height="171.18686608102362" width="395.52"><g><svg viewBox="0 0 395.52 171.18686608102362" height="171.18686608102362" width="395.52"><g><svg viewBox="0 0 395.52 171.18686608102362" height="171.18686608102362" width="395.52"><g id="textblocktransform"><svg viewBox="0 0 395.52 171.18686608102362" height="171.18686608102362" width="395.52" id="textblock"><g><rect width="395.52" height="134.3222518169872" fill="none" stroke-width="8.962371322224001" stroke="#2e30ff" data-fill-palette-color="none" data-stroke-palette-color="tertiary"></rect><rect width="395.52" height="53.394484203346096" y="134.3222518169872" fill="#2e30ff" data-fill-palette-color="tertiary"></rect></g><g><svg viewBox="0 0 395.52 133.3222518169872" height="133.3222518169872" width="395.52"><g transform="matrix(1,0,0,1,23.461705032,23.461705032)"><svg width="348.596589936" viewBox="4.25 -36.4 191.63 47.5" height="86.39884175298721" data-palette-color="#2e30ff"><path d="M17.9-13.25L8.1-13.25 8.1 0 4.25 0 4.25-34.6 17.05-34.6Q22.55-34.6 25.33-32.05 28.1-29.5 28.1-24.1L28.1-24.1Q28.1-16.1 21.75-14.05L21.75-14.05 28.4 0 24.15 0 17.9-13.25ZM8.1-16.65L17.1-16.65Q24.15-16.65 24.15-23.93 24.15-31.2 17.05-31.2L17.05-31.2 8.1-31.2 8.1-16.65ZM50.95-3.1L50.95-3.1 52.4-3.25 52.5-0.3Q46.8 0.5 42.75 0.5L42.75 0.5Q37.35 0.5 35.1-2.63 32.85-5.75 32.85-12.35L32.85-12.35Q32.85-25.5 43.3-25.5L43.3-25.5Q48.35-25.5 50.85-22.68 53.35-19.85 53.35-13.8L53.35-13.8 53.15-10.95 36.65-10.95Q36.65-6.8 38.15-4.8 39.65-2.8 43.37-2.8 47.1-2.8 50.95-3.1ZM36.6-13.95L49.6-13.95Q49.6-18.55 48.12-20.45 46.65-22.35 43.32-22.35 40-22.35 38.32-20.35 36.65-18.35 36.6-13.95L36.6-13.95ZM67.05-22.15L67.05-22.15Q61.59-22.15 61.59-18.35L61.59-18.35Q61.59-16.6 62.84-15.88 64.09-15.15 68.55-14.38 73-13.6 74.84-12.2 76.69-10.8 76.69-6.95 76.69-3.1 74.22-1.3 71.75 0.5 67 0.5L67 0.5Q63.89 0.5 59.7-0.2L59.7-0.2 58.2-0.45 58.39-3.7Q64.09-2.85 67-2.85 69.89-2.85 71.42-3.78 72.94-4.7 72.94-6.88 72.94-9.05 71.64-9.83 70.34-10.6 65.94-11.3 61.55-12 59.7-13.35 57.84-14.7 57.84-18.35 57.84-22 60.42-23.75 62.99-25.5 66.84-25.5L66.84-25.5Q69.89-25.5 74.5-24.8L74.5-24.8 75.89-24.55 75.8-21.35Q70.25-22.15 67.05-22.15ZM99.44-3.1L99.44-3.1 100.89-3.25 100.99-0.3Q95.29 0.5 91.24 0.5L91.24 0.5Q85.84 0.5 83.59-2.63 81.34-5.75 81.34-12.35L81.34-12.35Q81.34-25.5 91.79-25.5L91.79-25.5Q96.84-25.5 99.34-22.68 101.84-19.85 101.84-13.8L101.84-13.8 101.64-10.95 85.14-10.95Q85.14-6.8 86.64-4.8 88.14-2.8 91.87-2.8 95.59-2.8 99.44-3.1ZM85.09-13.95L98.09-13.95Q98.09-18.55 96.62-20.45 95.14-22.35 91.82-22.35 88.49-22.35 86.82-20.35 85.14-18.35 85.09-13.95L85.09-13.95ZM111.44 0L107.69 0 107.69-25 111.39-25 111.39-21.6Q115.74-24.6 120.54-25.55L120.54-25.55 120.54-21.75Q118.44-21.35 116.17-20.5 113.89-19.65 112.69-19L112.69-19 111.44-18.35 111.44 0ZM129.69 0L122.64-25 126.64-25 132.49-3.25 134.34-3.25 140.39-25 144.24-25 137.19 0 129.69 0ZM152.78 0L149.03 0 149.03-25 152.78-25 152.78 0ZM152.78-30.65L149.03-30.65 149.03-35 152.78-35 152.78-30.65ZM172.03-21.75L164.78-21.75 164.78 0 161.03 0 161.03-21.75 157.88-21.75 157.88-25 161.03-25 161.03-27.25Q161.03-32.55 162.53-34.48 164.03-36.4 167.78-36.4L167.78-36.4 172.83-36.05 172.78-32.95Q169.98-33.05 168.16-33.05 166.33-33.05 165.56-31.85 164.78-30.65 164.78-27.2L164.78-27.2 164.78-25 172.03-25 172.03-21.75ZM181.28 0L174.18-25 177.93-25 184.18-3.25 185.83-3.25 192.13-25 195.88-25 185.48 11.1 181.73 11.1 184.98 0 181.28 0Z" opacity="1" transform="matrix(1,0,0,1,0,0)" fill="#2e30ff" class="wordmark-text-0" data-fill-palette-color="primary" id="text-0"></path></svg></g></svg></g><g transform="matrix(1,0,0,1,75.54432,133.3222518169872)"><svg viewBox="0 0 244.43135999999998 37.86461426403642" height="37.86461426403642" width="244.43135999999998"><g transform="matrix(1,0,0,1,20,3.2)"><svg width="204.43135999999998" viewBox="3.65 -35 230.62 35.5" height="31.464614264036417" data-palette-color="#ffffff"><path d="M3.65 0L3.65-35 12.65-35Q18.15-35 21.23-32.27 24.3-29.55 24.3-24.3L24.3-24.3Q24.3-21.3 22.88-18.88 21.45-16.45 18.9-15.05L18.9-15.05 25.9 0 20.5 0 14.25-13.7Q13.45-13.6 12.6-13.6L12.6-13.6 8.2-13.6 8.2 0 3.65 0ZM8.2-17.8L12.25-17.8Q16.05-17.8 17.8-19.45 19.55-21.1 19.55-24.3L19.55-24.3Q19.55-27.55 17.8-29.2 16.05-30.85 12.25-30.85L12.25-30.85 8.2-30.85 8.2-17.8ZM39.25 0.5Q35.55 0.5 32.92-1.23 30.3-2.95 28.97-5.9 27.65-8.85 27.65-12.45L27.65-12.45Q27.65-15.9 28.87-18.78 30.1-21.65 32.42-23.33 34.75-25 37.95-25L37.95-25Q42.05-25 44.62-22.25 47.2-19.5 47.2-14.65L47.2-14.65Q47.2-13.8 47-12.3L47-12.3 32.1-12.3Q32.25-7.95 34.27-5.7 36.3-3.45 39.55-3.45L39.55-3.45Q41.1-3.45 42.82-3.83 44.55-4.2 45.85-4.9L45.85-4.9 46.25-1Q43.5 0.5 39.25 0.5L39.25 0.5ZM32.3-15.35L42.75-15.35Q42.75-17.85 41.52-19.43 40.3-21 38-21L38-21Q35.75-21 34.27-19.6 32.8-18.2 32.3-15.35L32.3-15.35ZM57.35 0.5Q53.05 0.5 49.9-1.5L49.9-1.5 50.45-5.9Q53.65-3.4 57.05-3.4L57.05-3.4Q58.85-3.4 59.87-4.15 60.9-4.9 60.9-6.35L60.9-6.35Q60.9-7.45 60.42-8.15 59.95-8.85 58.85-9.5 57.75-10.15 55.45-11.2L55.45-11.2Q52.75-12.45 51.5-14.05 50.25-15.65 50.25-18.2L50.25-18.2Q50.25-21.2 52.35-23.1 54.45-25 58-25L58-25Q61.6-25 64.3-23.4L64.3-23.4 63.75-19.35Q62.4-20.25 61.2-20.68 60-21.1 58.35-21.1L58.35-21.1Q56.6-21.1 55.6-20.35 54.6-19.6 54.6-18.25L54.6-18.25Q54.6-16.9 55.47-16.2 56.35-15.5 58.9-14.35L58.9-14.35Q62.45-12.75 63.9-11.13 65.34-9.5 65.34-6.85L65.34-6.85Q65.34-3.4 63.2-1.45 61.05 0.5 57.35 0.5L57.35 0.5ZM79.19 0.5Q75.49 0.5 72.87-1.23 70.24-2.95 68.92-5.9 67.59-8.85 67.59-12.45L67.59-12.45Q67.59-15.9 68.82-18.78 70.04-21.65 72.37-23.33 74.69-25 77.89-25L77.89-25Q81.99-25 84.57-22.25 87.14-19.5 87.14-14.65L87.14-14.65Q87.14-13.8 86.94-12.3L86.94-12.3 72.04-12.3Q72.19-7.95 74.22-5.7 76.24-3.45 79.49-3.45L79.49-3.45Q81.04-3.45 82.77-3.83 84.49-4.2 85.79-4.9L85.79-4.9 86.19-1Q83.44 0.5 79.19 0.5L79.19 0.5ZM72.24-15.35L82.69-15.35Q82.69-17.85 81.47-19.43 80.24-21 77.94-21L77.94-21Q75.69-21 74.22-19.6 72.74-18.2 72.24-15.35L72.24-15.35ZM91.04 0L91.04-24.5 94.59-24.5 95.14-20.4Q96.79-22.8 98.27-23.9 99.74-25 101.39-25L101.39-25Q102.04-25 102.54-24.85L102.54-24.85 102.09-19.9Q101.44-20.05 100.59-20.05L100.59-20.05Q98.94-20.05 97.49-19.23 96.04-18.4 95.39-17.3L95.39-17.3 95.39 0 91.04 0ZM111.29 0L103.14-24.5 107.79-24.5 113.49-5.15 119.09-24.5 123.74-24.5 115.64 0 111.29 0ZM131.34 0.5Q128.54 0.5 126.74-1.5 124.94-3.5 124.94-6.6L124.94-6.6Q124.94-11.2 128.79-13.23 132.64-15.25 137.39-15.35L137.39-15.35Q137.39-18.55 136.44-19.8 135.49-21.05 133.24-21.05L133.24-21.05Q130.34-21.05 127.34-18.8L127.34-18.8 126.79-22.45Q129.94-25 134.09-25L134.09-25Q138.04-25 139.94-22.73 141.84-20.45 141.84-15.4L141.84-15.4 141.84-8.25Q141.84-5.4 142.24-4.23 142.64-3.05 143.99-3.05L143.99-3.05 144.54-3.05 143.99 0.5 143.04 0.5Q140.74 0.5 139.64-0.35 138.54-1.2 137.84-3.1L137.84-3.1Q136.69-1.45 134.99-0.48 133.29 0.5 131.34 0.5L131.34 0.5ZM132.69-3.05Q133.89-3.05 135.19-3.98 136.49-4.9 137.39-6.4L137.39-6.4 137.39-12.25Q133.54-12.05 131.54-10.78 129.54-9.5 129.54-6.85L129.54-6.85Q129.54-3.05 132.69-3.05L132.69-3.05ZM154.98 0.5Q152.13 0.5 150.76-1.2 149.38-2.9 149.38-5.35L149.38-5.35 149.38-21.05 145.98-21.05 146.38-24.5 149.38-24.5 149.38-30.55 153.73-31 153.73-24.5 159.03-24.5 159.03-21.05 153.73-21.05 153.73-7.1Q153.73-4.85 154.56-3.95 155.38-3.05 157.43-3.05L157.43-3.05 158.98-3.05 158.58 0.5 154.98 0.5ZM162.93-30.05L162.93-35 167.28-35 167.28-30.05 162.93-30.05ZM162.93 0L162.93-24.5 167.28-24.5 167.28 0 162.93 0ZM182.08 0.5Q178.78 0.5 176.38-1.18 173.98-2.85 172.7-5.75 171.43-8.65 171.43-12.25L171.43-12.25Q171.43-15.85 172.7-18.75 173.98-21.65 176.38-23.33 178.78-25 182.08-25L182.08-25Q185.33-25 187.73-23.33 190.13-21.65 191.38-18.75 192.63-15.85 192.63-12.25L192.63-12.25Q192.63-8.65 191.38-5.75 190.13-2.85 187.73-1.18 185.33 0.5 182.08 0.5L182.08 0.5ZM182.08-3.35Q184.98-3.35 186.58-5.7 188.18-8.05 188.18-12.25L188.18-12.25Q188.18-16.45 186.58-18.78 184.98-21.1 182.08-21.1L182.08-21.1Q179.08-21.1 177.48-18.78 175.88-16.45 175.88-12.25L175.88-12.25Q175.88-8 177.48-5.68 179.08-3.35 182.08-3.35L182.08-3.35ZM207.07-25Q210.88-25 212.9-22.03 214.92-19.05 214.92-14L214.92-14 214.92 0 210.57 0 210.57-13.45Q210.57-17.35 209.45-19.23 208.32-21.1 206.07-21.1L206.07-21.1Q204.42-21.1 203.02-20.18 201.63-19.25 200.67-17.6L200.67-17.6 200.67 0 196.32 0 196.32-24.5 200.02-24.5 200.32-21.45Q201.38-23.1 203.15-24.05 204.92-25 207.07-25L207.07-25ZM226.27 0.5Q221.97 0.5 218.82-1.5L218.82-1.5 219.37-5.9Q222.57-3.4 225.97-3.4L225.97-3.4Q227.77-3.4 228.8-4.15 229.82-4.9 229.82-6.35L229.82-6.35Q229.82-7.45 229.35-8.15 228.87-8.85 227.77-9.5 226.67-10.15 224.37-11.2L224.37-11.2Q221.67-12.45 220.42-14.05 219.17-15.65 219.17-18.2L219.17-18.2Q219.17-21.2 221.27-23.1 223.37-25 226.92-25L226.92-25Q230.52-25 233.22-23.4L233.22-23.4 232.67-19.35Q231.32-20.25 230.12-20.68 228.92-21.1 227.27-21.1L227.27-21.1Q225.52-21.1 224.52-20.35 223.52-19.6 223.52-18.25L223.52-18.25Q223.52-16.9 224.4-16.2 225.27-15.5 227.82-14.35L227.82-14.35Q231.37-12.75 232.82-11.13 234.27-9.5 234.27-6.85L234.27-6.85Q234.27-3.4 232.12-1.45 229.97 0.5 226.27 0.5L226.27 0.5Z" opacity="1" transform="matrix(1,0,0,1,0,0)" fill="#ffffff" class="slogan-text-1" data-fill-palette-color="quaternary" id="text-1"></path></svg></g></svg></g></svg></g></svg></g></svg></g><defs></defs></svg><rect width="395.52" height="171.18686608102362" fill="none" stroke="none" visibility="hidden"></rect></g></svg></g></svg>